<?xml version="1.0" encoding="utf-8"?>
<!-- Generator: Adobe Illustrator 27.5.0, SVG Export Plug-In . SVG Version: 6.00 Build 0)  -->
<svg version="1.1" id="Layer_1" xmlns="http://www.w3.org/2000/svg" xmlns:xlink="http://www.w3.org/1999/xlink" x="0px" y="0px"
	 viewBox="0 0 500 500" style="enable-background:new 0 0 500 500;" xml:space="preserve">
<rect style="fill:#FFFFFF;" width="500" height="500"/>
<ellipse style="fill:#C4C9C0;" cx="250" cy="393.224" rx="220.627" ry="18.906"/>
<g>
	<g id="XMLID_8_">
		<path style="fill:#8F5654;" d="M393.007,234.927l21.194,151.666c0.08,0.573-0.365,1.085-0.944,1.085l0,0
			c-0.467,0-0.865-0.338-0.941-0.799l-24.971-151.952H393.007z"/>
		<path style="fill:#8F5654;" d="M381.477,234.927l-24.971,151.952c-0.076,0.461-0.474,0.799-0.941,0.799l0,0
			c-0.579,0-1.024-0.512-0.944-1.085l21.194-151.666H381.477z"/>
		<polygon style="fill:#864B61;" points="393.007,234.927 387.345,234.927 381.477,234.927 375.815,234.927 363.452,234.927 
			367.263,200.358 401.56,200.358 405.37,234.927 		"/>
		<polygon style="opacity:0.12;fill:#FFFFFF;" points="394.37,234.927 391.027,234.927 387.562,234.927 384.219,234.927 
			376.919,234.927 379.169,200.358 399.42,200.358 401.671,234.927 		"/>
	</g>
</g>
<g>
	<g id="XMLID_9_">
		<polygon style="fill:#976D67;" points="111.879,353.398 111.879,390.758 107.859,390.758 106.459,369.468 106.459,353.398 
			109.269,353.398 		"/>
		<polygon style="fill:#976D67;" points="111.879,310.608 111.879,353.398 109.269,353.398 106.459,353.398 106.459,350.688 
			106.459,332.408 106.459,329.698 106.459,310.608 		"/>
		<rect x="46.799" y="350.688" style="fill:#976D67;" width="59.66" height="2.71"/>
		<rect x="46.799" y="329.698" style="fill:#976D67;" width="59.66" height="2.71"/>
		<path style="fill:#C99189;" d="M106.459,310.608v19.09h-59.66v-19.09H106.459z M97.219,321.558c0-1.16-0.95-2.11-2.11-2.11
			c-1.17,0-2.11,0.95-2.11,2.11c0,1.17,0.94,2.11,2.11,2.11C96.269,323.668,97.219,322.728,97.219,321.558z M60.259,321.558
			c0-1.16-0.95-2.11-2.11-2.11c-1.17,0-2.11,0.95-2.11,2.11c0,1.17,0.94,2.11,2.11,2.11
			C59.309,323.668,60.259,322.728,60.259,321.558z"/>
		<circle style="fill:#E0E7DB;" cx="95.109" cy="321.558" r="2.11"/>
		<circle style="fill:#DFE6DC;" cx="95.109" cy="342.548" r="2.11"/>
		<path style="fill:#DFE6DC;" d="M95.109,359.328c1.16,0,2.11,0.94,2.11,2.1c0,1.17-0.95,2.11-2.11,2.11
			c-1.17,0-2.11-0.94-2.11-2.11C92.999,360.268,93.939,359.328,95.109,359.328z"/>
		<circle style="fill:#E0E7DB;" cx="58.149" cy="321.558" r="2.11"/>
		<circle style="fill:#DFE6DC;" cx="58.149" cy="342.548" r="2.11"/>
		<path style="fill:#DFE6DC;" d="M58.149,359.328c1.16,0,2.11,0.94,2.11,2.1c0,1.17-0.95,2.11-2.11,2.11
			c-1.17,0-2.11-0.94-2.11-2.11C56.039,360.268,56.979,359.328,58.149,359.328z"/>
		<polygon style="fill:#976D67;" points="46.799,353.398 46.799,369.468 45.389,390.758 41.369,390.758 41.369,353.398 
			43.989,353.398 		"/>
		<polygon style="fill:#976D67;" points="46.799,353.398 43.989,353.398 41.369,353.398 41.369,310.608 46.799,310.608 
			46.799,329.698 46.799,332.408 46.799,350.688 		"/>
		<path style="fill:#C99189;" d="M106.459,353.398v16.07h-59.66v-16.07H106.459z M97.219,361.428c0-1.16-0.95-2.1-2.11-2.1
			c-1.17,0-2.11,0.94-2.11,2.1c0,1.17,0.94,2.11,2.11,2.11C96.269,363.538,97.219,362.598,97.219,361.428z M60.259,361.428
			c0-1.16-0.95-2.1-2.11-2.1c-1.17,0-2.11,0.94-2.11,2.1c0,1.17,0.94,2.11,2.11,2.11C59.309,363.538,60.259,362.598,60.259,361.428z
			"/>
		<path style="fill:#C99189;" d="M106.459,332.408v18.28h-59.66v-18.28H106.459z M97.219,342.548c0-1.16-0.95-2.11-2.11-2.11
			c-1.17,0-2.11,0.95-2.11,2.11c0,1.17,0.94,2.11,2.11,2.11C96.269,344.658,97.219,343.718,97.219,342.548z M60.259,342.548
			c0-1.16-0.95-2.11-2.11-2.11c-1.17,0-2.11,0.95-2.11,2.11c0,1.17,0.94,2.11,2.11,2.11
			C59.309,344.658,60.259,343.718,60.259,342.548z"/>
		<path style="fill:#B8807C;" d="M40.269,308.398h72.72c0.61,0,1.1,0.5,1.1,1.11c0,0.61-0.49,1.1-1.1,1.1h-1.11h-5.42h-59.66h-5.43
			h-1.1c-0.61,0-1.11-0.49-1.11-1.1C39.159,308.898,39.659,308.398,40.269,308.398z"/>
	</g>
</g>
<g>
	<g id="XMLID_7_">
		<polygon style="fill:#CEDBC7;" points="61.444,267.953 35.368,267.953 50.382,238.071 79.409,238.071 94.424,267.953 
			68.347,267.953 		"/>
		<polygon style="fill:#DEE7DA;" points="61.277,267.953 41.493,267.953 52.884,238.071 74.907,238.071 86.299,267.953 
			66.514,267.953 		"/>
		<path style="fill:#D2666B;" d="M75.729,308.434H54.062c0-1.644,1.334-2.978,2.978-2.978h1.072h13.572h1.067
			c0.822,0,1.568,0.332,2.107,0.871C75.397,306.866,75.729,307.612,75.729,308.434z"/>
		<path style="fill:#AE576A;" d="M71.205,275.095H58.586v-0.474c0-0.789,0.637-1.432,1.426-1.432h9.766
			c0.789,0,1.426,0.642,1.426,1.432V275.095z"/>
		<rect x="61.444" y="267.953" style="fill:#D2666B;" width="6.903" height="3.691"/>
		<rect x="62.038" y="301.406" style="fill:#9E4C4F;" width="5.716" height="1.551"/>
		<path style="fill:#AE576A;" d="M69.899,304.144h-10c0-0.659,0.528-1.187,1.187-1.187h0.953h5.716h0.953
			c0.332,0,0.626,0.131,0.844,0.349C69.768,303.518,69.899,303.818,69.899,304.144z"/>
		<path style="fill:#AE576A;" d="M61.444,301.406c-0.789,0-1.432-0.637-1.432-1.426h9.766c0,0.789-0.642,1.426-1.432,1.426h-0.593
			h-5.716H61.444z"/>
		<path style="fill:#9E4C4F;" d="M69.779,273.19h-9.766v-0.12c0-0.789,0.642-1.426,1.432-1.426h6.903
			c0.789,0,1.432,0.637,1.432,1.426V273.19z"/>
		<path style="fill:#BF5F6B;" d="M60.132,298.668h9.527h0.893c0.359,0,0.653,0.294,0.653,0.659c0,0.359-0.294,0.653-0.653,0.653
			h-0.773h-9.766h-0.773c-0.359,0-0.653-0.294-0.653-0.653c0-0.365,0.294-0.659,0.653-0.659H60.132z"/>
		<path style="fill:#BF5F6B;" d="M59.898,304.144h10h0.474c0.365,0,0.691,0.147,0.925,0.387c0.24,0.234,0.387,0.561,0.387,0.926
			H58.112c0-0.724,0.583-1.312,1.307-1.312H59.898z"/>
		<path style="fill:#D2666B;" d="M75.206,281.209c0.321,0.909,0.485,1.856,0.485,2.804c0,0.958-0.163,1.911-0.49,2.825
			c-1.236,3.435-2.738,6.767-4.507,9.962l-1.034,1.867h-9.527l-1.034-1.867c-1.764-3.196-3.272-6.527-4.502-9.962
			c-0.653-1.818-0.659-3.805-0.011-5.629l0.67-1.889c0.615-1.737,1.786-3.223,3.332-4.224h12.619
			c1.546,1.002,2.716,2.488,3.332,4.224L75.206,281.209z"/>
	</g>
</g>
<g>
	<path style="fill:#5D3144;" d="M317.783,327.203c-0.329-1.757-1.87-3.083-3.729-3.083H290.53c-2.091,0-3.788,1.697-3.788,3.788
		v6.728v4.136l-0.01,0c-0.104-2.035-3.001-3.886-6.856-5.259c0.102-0.203,0.155-0.436,0.155-0.675v-9.262v-3.083v-17.747v-18.81
		c0-0.819-0.628-1.494-1.44-1.566l-15.53-0.591l-17.406-0.669c-3.454-0.299-6.92-0.358-10.385-0.185l-33.761-1.374
		c-0.149,0.006-0.293,0.036-0.424,0.084c-0.627,0.209-1.07,0.795-1.07,1.482l0.004,0.88l-0.721-0.826
		c0-0.687-0.442-1.273-1.07-1.482c-0.132-0.048-0.275-0.078-0.424-0.084l-32.351,1.321c-3.466-0.173-6.932-0.114-10.385,0.185
		l-17.406,0.669l-15.53,0.591c-0.813,0.072-1.44,0.747-1.44,1.566v18.81v20.83v6.26c0,0.239-6.818,0.15-6.716,0.353
		c0,0,0.006,6.616,0.006,8.696v-10.977c0-0.239-0.024-0.478-0.066-0.705c-0.329-1.757-1.87-3.083-3.729-3.083H86.662
		c-2.091,0-3.788,1.697-3.788,3.788v6.728v21.858v29.626c0,2.091,1.697,3.788,3.788,3.788h23.525c2.097,0,3.794-1.697,3.794-3.788
		v-5.529c0.335,1.403,1.589,2.45,3.096,2.45h79.783c1.757,0,3.185-1.428,3.185-3.191v-4.625l0.378-0.324l0.003,0.576v4.625
		c0,1.763,1.428,3.191,3.185,3.191h79.783c1.351,0,2.761-0.84,3.348-2.024v4.851c0,2.091,1.697,3.788,3.788,3.788h23.525
		c2.097,0,3.794-1.697,3.794-3.788v-6.017v-4.625v-16.54v-5.772v-3.723v-4.446v-6.113v-10.977
		C317.849,327.669,317.825,327.43,317.783,327.203z M282.64,355h0.102h0.061c0.688,0,1.334,0.177,1.897,0.487
		C284.045,355.182,283.322,355,282.64,355z M284.907,355h-0.061c0.422,0,0.833-0.147,1.173-0.385
		C285.71,354.853,285.328,355,284.907,355z"/>
	<path style="fill:#5D3144;" d="M200.26,338.771c0-1.661-2.372-3.095-5.515-4.362h3.484c0.872,0,1.721-0.699,1.721-1.572
		c0,0.872,0.699,1.572,1.572,1.572h4.458C202.835,335.676,200.26,337.11,200.26,338.771z"/>
	<path style="fill:#9F6680;" d="M286.741,327.908v6.728c1.261-3.023,3.269-5.312,11.282-5.312c3.4,0,6.937,0.442,10.272,0.442
		c3.537,0,6.842-0.496,9.489-2.563c-0.329-1.757-1.87-3.083-3.729-3.083H290.53C288.439,324.119,286.741,325.816,286.741,327.908z"
		/>
	<path style="fill:#874C63;" d="M317.784,327.203c-2.647,2.067-5.952,2.563-9.489,2.563c-3.334,0-6.872-0.442-10.272-0.442
		c-8.013,0-10.021,2.289-11.282,5.312v21.858c13.863-3.358,22.82-11.497,31-11.497c0.036,0,0.072,0,0.108,0v-6.113v-10.977
		C317.849,327.669,317.825,327.43,317.784,327.203z"/>
	<path style="fill:#7D455B;" d="M317.742,344.997c-8.18,0-17.137,8.138-31,11.497v29.626c0,2.091,1.697,3.788,3.788,3.788h23.525
		c2.097,0,3.794-1.697,3.794-3.788v-6.017v-4.625v-16.54v-5.772v-3.723v-4.446C317.813,344.997,317.778,344.997,317.742,344.997z"/>
	<path style="fill:#482335;" d="M286.741,358.938c0-2.175-1.763-3.938-3.938-3.938h2.103c1.016,0,1.834-0.825,1.834-1.834V358.938z"
		/>
	<g>
		<path style="fill:#5D3144;" d="M114.299,356.946c15.022,6.74,35.386,20.573,66.942,20.573c6.376,0,12.668-0.675,18.804-2.294
			v4.625c0,1.763-1.428,3.191-3.185,3.191h-79.783c-1.763,0-3.191-1.428-3.191-3.191v-21.165
			C113.886,358.058,114.03,357.466,114.299,356.946z"/>
		<path style="fill:#5D3144;" d="M196.107,354.747c2.175,0,3.938,1.763,3.938,3.938v16.54c-6.137,1.619-12.429,2.294-18.804,2.294
			c-31.556,0-51.92-13.833-66.942-20.573c0.639-1.303,1.984-2.199,3.531-2.199H196.107z"/>
	</g>
	<g>
		<path style="fill:#7D455B;" d="M113.981,344.997v4.446c8.826,1.386,17.837,2.115,26.883,2.115
			c43.405,0,44.935-8.939,48.299-12.674h-75.182V344.997z"/>
		<path style="fill:#7D455B;" d="M189.164,338.884c-3.364,3.735-4.894,12.674-48.299,12.674c-9.047,0-18.058-0.729-26.883-2.115
			v3.723c0,1.01,0.819,1.834,1.834,1.834h2.103h78.277h2.103c1.016,0,2.133-0.819,2.133-1.828l0.03-14.401L189.164,338.884z"/>
	</g>
	<path style="fill:#743F54;" d="M134.345,331.104c-4.039,0-9.322,0.926-13.498,2.408c-0.102-0.203-0.155-0.436-0.155-0.675v-9.262
		c4.171,1.368,11.168,1.488,14.305,1.488c52.553,0,58.122-34.03,63.231-45.377c0.628,0.209,1.07,0.795,1.07,1.482l0.651,51.669
		c0,0.872-0.848,1.572-1.721,1.572h-3.484c-0.908-0.365-1.894-0.711-2.916-1.028c-4.559-1.404-9.931-2.277-13.176-2.277H134.345z"/>
	<path style="fill:#874C63;" d="M198.228,279.686c-5.109,11.347-10.678,45.377-63.231,45.377c-3.137,0-10.134-0.12-14.305-1.488
		v-20.83c9.602-1.578,17.137-8.467,17.137-18.195c0-1.064-0.066-1.984-0.167-2.772l17.406-0.669
		c3.454-0.299,6.919-0.358,10.385-0.185l32.351-1.321C197.953,279.609,198.097,279.638,198.228,279.686z"/>
	<g>
		<path style="fill:#4E2739;" d="M200.425,375.478c6.137,1.619,12.429,2.295,18.804,2.295c31.556,0,52.362-13.833,67.384-20.573
			c0.269,0.52,0.412,1.111,0.412,1.739v21.165c0,1.763-1.87,3.191-3.633,3.191H203.61c-1.757,0-3.185-1.428-3.185-3.191V375.478z"/>
		<path style="fill:#5D3144;" d="M282.64,355c1.548,0,3.334,0.896,3.974,2.199c-15.022,6.74-35.828,20.573-67.384,20.573
			c-6.376,0-12.668-0.675-18.804-2.295v-16.54c0-2.175,1.763-3.938,3.938-3.938H282.64z"/>
	</g>
	<g>
		<path style="fill:#874C63;" d="M200.527,338.884h75.182c-3.364,3.735-4.894,12.674-48.299,12.674
			c-9.047,0-18.058-0.729-26.883-2.115v-4.446V338.884z"/>
		<path style="fill:#743F54;" d="M200.527,349.443c8.826,1.386,17.837,2.115,26.883,2.115c43.405,0,44.935-8.939,48.299-12.674
			l11.096-0.113l0.03,14.401c0,1.01-0.974,1.828-1.99,1.828h-2.103h-78.277h-2.103c-1.016,0-1.834-0.825-1.834-1.834V349.443z"/>
	</g>
	<path style="fill:#955971;" d="M137.662,281.778c0.102,0.789,0.167,1.709,0.167,2.772c0,9.728-7.535,16.618-17.137,18.195v-18.81
		c0-0.819,0.627-1.494,1.44-1.566L137.662,281.778z"/>
	<g>
		<path style="fill:#9F6680;" d="M279.876,333.513c-4.177-1.482-9.459-2.408-13.498-2.408H222.07c-3.245,0-8.617,0.872-13.176,2.277
			c-1.022,0.317-2.008,0.663-2.916,1.028c-3.143,1.267-5.718,2.701-5.718,4.362l11.299,0.113h75.182
			C286.741,336.805,283.802,334.911,279.876,333.513z"/>
		<path style="fill:#9F6680;" d="M194.745,334.409c-0.908-0.365-1.894-0.711-2.916-1.028c-4.559-1.404-9.931-2.277-13.176-2.277
			h-44.307c-4.039,0-9.322,0.926-13.498,2.408c-3.926,1.398-6.866,3.292-6.866,5.372h75.182l11.096-0.113
			C200.26,337.11,197.888,335.676,194.745,334.409z"/>
	</g>
	<path style="fill:#5D3144;" d="M115.816,355h2.103c-2.175,0-3.938,1.763-3.938,3.938v-5.772C113.981,354.175,114.8,355,115.816,355
		z"/>
	<g id="XMLID_6_">
		<path style="fill:#743F54;" d="M280.031,323.575v9.262c0,0.239-0.054,0.472-0.155,0.675c-4.177-1.482-9.459-2.408-13.498-2.408
			h-29.895c17.627-3.621,35.171-3.042,43.549-10.612V323.575z"/>
		<path style="fill:#7F495F;" d="M280.031,302.745v17.747c-8.377,7.571-25.921,6.991-43.549,10.612H222.07
			c-3.245,0-8.617,0.872-13.176,2.277c-1.022,0.317-2.008,0.663-2.916,1.028h-4.458c-0.872,0-1.572-0.699-1.572-1.572l0.066-51.723
			c0-0.687,0.442-1.273,1.07-1.482c0.131-0.048,0.275-0.078,0.424-0.084l33.761,1.374c3.466-0.173,6.931-0.113,10.385,0.185
			l17.406,0.669l15.53,0.591c0.813,0.072,1.44,0.747,1.44,1.566V302.745z"/>
	</g>
	<g id="XMLID_5_">
		<path style="fill:#B4D6C9;" d="M287.116,326.275c0.745,0.051,1.493,0.061,2.249,0.041c-1.821,6.721-3.04,11.65-3.04,11.65
			c-6.271-0.431-12.498-1.422-18.751-2.379c-4.959-4.449-7.445-11.424-15.588-15.386c0.525-2.33,0.944-5.026,1.157-8.126
			c0.118-1.723,0.207-3.454,0.326-5.177c0.028-0.411,0.062-0.822,0.096-1.227c2.375,5.614,6.199,12.992,10.962,13.319
			c2.23,0.153,4.753-0.835,7.012-0.68C276.649,318.662,277.042,325.582,287.116,326.275z"/>
		<path style="fill:#9FC6B6;" d="M251.986,320.201c8.143,3.962,10.628,10.936,15.588,15.386c-5.507-0.839-11.027-1.656-16.606-2.039
			c-1.437-0.099-2.603-0.125-2.603-0.125c-0.697-0.048-1.835-0.312-1.788-0.997C246.576,332.426,250.031,328.866,251.986,320.201z"
			/>
		<path style="fill:#C7E2D6;" d="M292.897,299.403c1.008-0.253,4.57-1.825,5.599-2.414c-3.107,7.824-6.666,20.218-9.13,29.326
			c-0.756,0.02-1.504,0.01-2.249-0.041c-10.075-0.692-10.468-7.613-15.577-7.964c-2.259-0.155-4.783,0.833-7.012,0.68
			c-4.763-0.327-8.587-7.705-10.962-13.319c0.274-3.293,0.685-6.128,0.687-6.158c0.031-0.447,0.044-0.901,0.074-1.343
			c0.096-1.401,0.752-3.979,2.052-3.89c0,0,0.684,2.241,19.968,6.453C276.359,300.736,286.198,301.082,292.897,299.403z"/>
	</g>
	<path style="fill:#7D455B;" d="M113.981,344.997v4.446v3.723v5.772v16.54v4.625v6.017c0,2.091-1.697,3.788-3.794,3.788H86.662
		c-2.091,0-3.788-1.697-3.788-3.788v-29.626c13.863-3.358,22.82-11.497,31-11.497C113.91,344.997,113.946,344.997,113.981,344.997z"
		/>
	<path style="fill:#8C536B;" d="M110.187,324.119c1.858,0,3.4,1.327,3.729,3.083c-2.647,2.067-5.951,2.563-9.489,2.563
		c-3.334,0-6.872-0.442-10.272-0.442c-8.013,0-10.021,2.289-11.282,5.312v-6.728c0-2.091,1.697-3.788,3.788-3.788H110.187z"/>
	<path style="fill:#874C63;" d="M94.155,329.324c3.4,0,6.937,0.442,10.272,0.442c3.537,0,6.842-0.496,9.489-2.563
		c0.042,0.227,0.066,0.466,0.066,0.705v10.977v6.113c-0.036,0-0.072,0-0.108,0c-8.18,0-17.137,8.138-31,11.497v-21.858
		C84.134,331.612,86.142,329.324,94.155,329.324z"/>
	<g id="XMLID_1_">
		<path style="fill:#B4D6C9;" d="M148.802,304.573c7.123,9.59,16.331,20.968,15.237,27.403c-2.223,0.568-4.673,0.735-7.182,0.723
			c-9.812-13.379-31.598-4.942-45.616-12.477c-1.894-5.013-4.428-9.758-8.073-12.19c-0.884-0.592-2.575-2.175-4.027-3.735
			c13.301,5.145,47.606,14.114,47.606,11.975c0-3.221-7.35-7.595-4.816-7.595c1.165,0,2.474,0.412,3.424,0.412
			C147.685,309.09,146.215,305.421,148.802,304.573z"/>
		<path style="fill:#9FC6B6;" d="M156.857,332.699c-4.272-0.024-8.718-0.574-12.572-0.574c-1.882,0-3.771-0.018-5.665-0.018
			c-4.547,0-16.289,4.344-20.681,5.916c-1.996,0.711-3.358-8.963-6.698-17.801C125.259,327.757,147.046,319.32,156.857,332.699z"/>
		<path style="fill:#C7E2D6;" d="M148.802,304.573c-2.587,0.848-1.117,4.517-3.448,4.517c-0.95,0-2.259-0.412-3.424-0.412
			c-2.534,0,4.816,4.374,4.816,7.595c0,2.139-34.305-6.83-47.606-11.975c-1.159-1.261-2.163-2.504-2.462-3.203
			c10.965-2.91,20.053-1.482,25.067-3.579c9.369-3.92,12.979-4.703,17.227-7.607c2.121-1.452,2.808,4.93,7.613,11.634
			C147.291,302.529,148.037,303.539,148.802,304.573z"/>
	</g>
</g>
<g>
	<g id="XMLID_3_">
		<polygon style="fill:#B64A58;" points="339.895,309.004 339.895,394.784 336.928,394.784 336.208,363.691 336.152,361.147 
			335.255,322.29 335.186,319.318 334.946,309.004 		"/>
		<polygon style="fill:#B64A58;" points="336.152,361.147 336.208,363.691 296.083,363.691 296.14,361.147 		"/>
		<path style="fill:#E46570;" d="M334.946,309.004l0.24,10.314h-38.08l0.082-3.535c11.437-5.548,28.669-2.291,37.721-6.779H334.946z
			"/>
		<path style="fill:#CF5A68;" d="M297.345,309.004h37.563c-9.051,4.488-26.283,1.231-37.721,6.779L297.345,309.004z"/>
		<polygon style="fill:#B64A58;" points="297.188,315.783 297.105,319.318 297.036,322.29 296.14,361.147 296.083,363.691 
			295.363,394.784 292.397,394.784 292.397,309.004 297.345,309.004 		"/>
		<path style="fill:#E46570;" d="M292.397,308.985v0.019h-4.595c-0.423,0-0.776-0.347-0.776-0.776v-1.414
			c0-0.429,0.353-0.776,0.776-0.776h56.688c0.429,0,0.776,0.347,0.776,0.776v1.414c0,0.429-0.347,0.776-0.776,0.776h-4.595v-0.019
			h-4.949c-0.013,0.006-0.025,0.013-0.038,0.019h-37.563v-0.019H292.397z"/>
		<polygon style="fill:#B64A58;" points="335.186,319.318 335.255,322.29 297.036,322.29 297.105,319.318 		"/>
	</g>
	<path style="fill:#874C63;" d="M317.701,315.136c0,0.859-0.696,1.555-1.555,1.555s-1.555-0.696-1.555-1.555
		c0-0.859,0.696-1.555,1.555-1.555S317.701,314.277,317.701,315.136z"/>
</g>
<g id="XMLID_2_">
	<path style="fill:#99C6B4;" d="M469.104,278.134c1.268,7.787-0.982,21.705-4.404,36.298c1.786-15.378,0.597-29.93,3.762-37.187
		C468.82,277.466,469.04,277.762,469.104,278.134z"/>
	<path style="fill:#59A085;" d="M403.506,341.224c-0.4,1.336-0.752,2.774-1.068,4.279c-3.096,0.673-6.231,0.965-9.385,1.142
		c-2.546,0.142-5.102,0.211-7.653,0.354c-6.487,0.363-9.788,0.671-11.298,2.352c-0.269-4.815-0.849-14.626-1.088-18.912
		c-0.21-3.763-0.544-5.206,4.098-5.466c5.042-0.282,19.507,4.362,31.06,3.716c15.28-0.854,22.733-8.981,21.806-25.552
		c-0.176-3.142-0.296-5.96-0.606-8.41c-1.292-10.42-2.398-15.089-2.398-15.089c-0.06-1.076,4.586-3.248,13.376-1.803
		c1.233,0.203,5.818,0.242,9.874-0.009c3.719-0.233,8.082-0.847,11.676-1.103c-5.438,12.406,4.484,19.086-13.669,53.284
		c-0.982,1.856,1.511,3.641-10.141,4.292c-1.131,0.063-2.309,0.08-3.512,0.061c-4.482-0.064-9.331-0.632-13.634-1.156
		c-4.44-0.541-8.293-1.041-10.549-0.915C407.229,332.467,405.039,336.099,403.506,341.224z"/>
	<path style="fill:#A86B67;" d="M452.286,388.174c0.249,0.819-0.215,1.677-1.033,1.927l-1.868,0.561
		c-0.819,0.249-1.684-0.22-1.933-1.039l-5.13-17.064c1.722-0.318,3.389-0.714,4.904-1.212L452.286,388.174z"/>
	<path style="fill:#96615F;" d="M434.048,387.782c0.243,0.819-0.221,1.678-1.04,1.927l-1.868,0.561
		c-0.819,0.249-1.684-0.22-1.927-1.04l-3.913-15.424c1.695-0.027,3.438-0.075,5.228-0.144L434.048,387.782z"/>
	<path style="fill:#99C6B4;" d="M402.438,345.502c0.317-1.504,0.668-2.942,1.068-4.279c6.474-1.145,14.534-1.725,17.439-8.019
		c4.304,0.524,9.153,1.092,13.634,1.156c-2.625,22.228-24.737,23.544-34.19,26.898c0.156-2.069,0.35-4.226,0.593-6.386
		C401.345,351.67,401.813,348.455,402.438,345.502z"/>
	<path style="fill:#B1D6C8;" d="M420.945,333.205c-2.905,6.293-10.965,6.873-17.439,8.019c1.533-5.125,3.723-8.757,6.89-8.934
		C412.653,332.164,416.505,332.664,420.945,333.205z"/>
	<path style="fill:#A86B67;" d="M408.037,373.396l0.84,18.118c0.042,0.855-0.621,1.577-1.476,1.618l-1.944,0.09
		c-0.855,0.042-1.583-0.621-1.618-1.476l-0.872-18.801C404.58,373.12,406.266,373.272,408.037,373.396z"/>
	<path style="fill:#80B29E;" d="M400.389,361.259c-0.112,1.524-0.208,3.003-0.29,4.402c-0.765-0.007-1.544-0.037-2.324-0.092
		c-5.289-0.383-18.119-2.713-22.894-7.368c-1.089-1.056-1.759-2.233-1.832-3.537c-0.12-2.152,0.018-3.659,0.63-4.723
		c2.695,2.748,14.066,6.239,21.771,5.808c1.869-0.104,3.722-0.387,5.533-0.877C400.738,357.033,400.545,359.19,400.389,361.259z"/>
	<path style="fill:#629E85;" d="M384.411,369.048c-1.858-0.68-3.434-1.399-4.733-2.141c-3.273-1.846-4.819-3.789-4.912-5.455
		c-0.034-0.615,0.028-1.926,0.114-3.251c4.775,4.655,17.605,6.985,22.894,7.368c0.78,0.055,1.559,0.086,2.324,0.092
		c-0.154,2.661-0.255,5.035-0.336,6.902C393.318,371.696,388.252,370.455,384.411,369.048z"/>
	<path style="fill:#96615F;" d="M384.411,369.048l-2.651,20.209c-0.101,0.851-0.875,1.455-1.725,1.355l-1.937-0.231
		c-0.844-0.101-1.455-0.869-1.348-1.72l2.929-21.754C380.978,367.648,382.554,368.368,384.411,369.048z"/>
	<path style="fill:#B1D6C8;" d="M374.101,349.35c1.51-1.682,4.811-1.99,11.298-2.352c2.552-0.143,5.108-0.211,7.653-0.354
		c3.154-0.176,6.29-0.469,9.385-1.142c-0.624,2.952-1.092,6.167-1.456,9.37c-1.811,0.49-3.664,0.772-5.533,0.877
		c-7.704,0.431-19.076-3.06-21.771-5.808C373.795,349.725,373.938,349.526,374.101,349.35z"/>
	<path style="fill:#8CB5A4;" d="M408.037,373.396c-1.771-0.123-3.457-0.276-5.071-0.451c-1.104-0.117-2.172-0.242-3.204-0.382
		c0.081-1.867,0.182-4.242,0.336-6.902c0.082-1.398,0.178-2.878,0.29-4.402c9.453-3.353,31.566-4.67,34.19-26.898
		c1.204,0.019,2.381,0.003,3.512-0.061c11.652-0.651,9.159-2.437,10.141-4.292c18.153-34.198,8.231-40.879,13.669-53.284
		c2.986-0.216,5.442-0.181,6.561,0.521c-3.165,7.258-1.976,21.809-3.762,37.187c-2.664,11.368-6.034,23.146-9.006,32.762
		c-3.859,12.496-5.99,23.156-6.044,23.184c-0.745,0.356-1.56,0.679-2.425,0.968c-1.514,0.498-3.182,0.893-4.904,1.212
		c-3.126,0.57-6.422,0.865-9.252,0.998c-0.861,0.042-1.704,0.077-2.542,0.105c-1.791,0.069-3.534,0.117-5.228,0.144
		C418.86,373.919,413.122,373.765,408.037,373.396z"/>
</g>
<g>
	<rect x="217.208" y="89.691" style="fill:#A46969;" width="105.682" height="114.292"/>
	<rect x="119.073" y="148.007" style="fill:#D19D99;" width="54.885" height="59.458"/>
	<rect x="215.388" y="148.007" style="fill:#D19D99;" width="54.885" height="59.458"/>
	<rect x="271.009" y="148.007" style="fill:#D19D99;" width="54.885" height="59.458"/>
	
		<rect x="173.958" y="171.231" transform="matrix(-1 -1.224647e-16 1.224647e-16 -1 389.3505 345.0694)" style="fill:#CA918A;" width="41.435" height="2.607"/>
	
		<rect x="173.958" y="170.809" transform="matrix(-1 -1.224647e-16 1.224647e-16 -1 351.8726 344.9417)" style="fill:#CFD6C9;" width="3.957" height="3.325"/>
	
		<rect x="211.435" y="170.809" transform="matrix(-1 -1.224647e-16 1.224647e-16 -1 426.8262 344.9417)" style="fill:#CFD6C9;" width="3.957" height="3.325"/>
	
		<rect x="173.958" y="150.143" transform="matrix(-1 -1.224647e-16 1.224647e-16 -1 389.3505 302.8928)" style="fill:#CA918A;" width="41.435" height="2.607"/>
	
		<rect x="173.958" y="149.72" transform="matrix(-1 -1.224647e-16 1.224647e-16 -1 351.8726 302.7651)" style="fill:#CFD6C9;" width="3.957" height="3.325"/>
	
		<rect x="211.435" y="149.72" transform="matrix(-1 -1.224647e-16 1.224647e-16 -1 426.8262 302.7651)" style="fill:#CFD6C9;" width="3.957" height="3.325"/>
	
		<rect x="173.958" y="202.229" transform="matrix(-1 -1.224647e-16 1.224647e-16 -1 389.3505 407.0659)" style="fill:#CA918A;" width="41.435" height="2.607"/>
	
		<rect x="173.958" y="201.807" transform="matrix(-1 -1.224647e-16 1.224647e-16 -1 351.8726 406.9383)" style="fill:#CFD6C9;" width="3.957" height="3.325"/>
	
		<rect x="211.435" y="201.807" transform="matrix(-1 -1.224647e-16 1.224647e-16 -1 426.8262 406.9383)" style="fill:#CFD6C9;" width="3.957" height="3.325"/>
	<circle style="fill:#BB8280;" cx="267.3" cy="204.869" r="1.809"/>
	<circle style="fill:#BB8280;" cx="273.802" cy="204.869" r="1.809"/>
	<rect x="215.388" y="87.87" style="fill:#D19D99;" width="54.885" height="59.458"/>
	<rect x="271.009" y="87.87" style="fill:#D19D99;" width="54.885" height="59.458"/>
	<circle style="fill:#BB8280;" cx="267.3" cy="144.731" r="1.809"/>
	<circle style="fill:#BB8280;" cx="273.802" cy="144.731" r="1.809"/>
	<circle style="fill:#BB8280;" cx="171.494" cy="204.869" r="1.809"/>
</g>
<g>
	<linearGradient id="SVGID_1_" gradientUnits="userSpaceOnUse" x1="320.8477" y1="263.8088" x2="324.6561" y2="263.8088">
		<stop  offset="0" style="stop-color:#003718"/>
		<stop  offset="0.4727" style="stop-color:#2C8656"/>
		<stop  offset="1" style="stop-color:#C0BA9B"/>
	</linearGradient>
	<path style="fill:url(#SVGID_1_);" d="M322.957,270.613c-1.33-2.025-2.109-4.438-2.109-6.87c0-3.087,1.234-4.352,1.692-6.738
		c1.533,1.99,2.116,4.102,2.116,6.258C324.656,265.695,323.914,268.183,322.957,270.613z"/>
	
		<linearGradient id="SVGID_00000140731404429830947720000009921183733072853128_" gradientUnits="userSpaceOnUse" x1="324.0355" y1="270.6087" x2="323.9864" y2="257.838">
		<stop  offset="0" style="stop-color:#003718"/>
		<stop  offset="0.4727" style="stop-color:#2C8656"/>
		<stop  offset="1" style="stop-color:#C0BA9B"/>
	</linearGradient>
	<path style="fill:url(#SVGID_00000140731404429830947720000009921183733072853128_);" d="M324.692,270.543
		c-1.841-2.224-2.75-4.83-2.75-7.466c0-2.136,0.597-4.292,1.778-6.281c0.775,3.877,2.356,4.39,2.356,7.951
		c0,1.578-0.438,3.159-1.384,4.685c-0.101,0.162-0.174,0.377-0.174,0.595C324.518,270.206,324.567,270.387,324.692,270.543z"/>
	
		<linearGradient id="SVGID_00000171699911232972548380000008922257594639592085_" gradientUnits="userSpaceOnUse" x1="326.4866" y1="268.7334" x2="324.6746" y2="258.4659">
		<stop  offset="0" style="stop-color:#003718"/>
		<stop  offset="0.4727" style="stop-color:#2C8656"/>
		<stop  offset="1" style="stop-color:#C0BA9B"/>
	</linearGradient>
	<path style="fill:url(#SVGID_00000171699911232972548380000008922257594639592085_);" d="M323.79,273.39
		c-0.181-1.05-0.27-2.113-0.27-3.177c0-6.754,3.047-9.479,3.047-11.403c1.727,1.387,2.425,3.016,2.425,4.688
		c0,2.765-1.909,5.646-4.23,7.739C324.251,271.698,323.859,272.557,323.79,273.39z"/>
	
		<linearGradient id="SVGID_00000106841254592101061350000008787401464322082238_" gradientUnits="userSpaceOnUse" x1="319.3923" y1="266.8145" x2="320.3539" y2="258.8149">
		<stop  offset="0" style="stop-color:#003718"/>
		<stop  offset="0.4727" style="stop-color:#2C8656"/>
		<stop  offset="1" style="stop-color:#C0BA9B"/>
	</linearGradient>
	<path style="fill:url(#SVGID_00000106841254592101061350000008787401464322082238_);" d="M317.819,266.378
		c-0.027-0.255-0.04-0.507-0.04-0.756c0-2.667,1.442-5.03,2.331-7.506c1.033,1.378,1.559,2.89,1.559,4.369
		c0,3.943-2.791,4.466-3.572,6.809C317.75,268.322,317.922,267.354,317.819,266.378z"/>
	
		<linearGradient id="SVGID_00000174596907326178596830000005065318838381731731_" gradientUnits="userSpaceOnUse" x1="322.6497" y1="269.9423" x2="321.7117" y2="262.0558">
		<stop  offset="0" style="stop-color:#003718"/>
		<stop  offset="0.4727" style="stop-color:#2C8656"/>
		<stop  offset="1" style="stop-color:#C0BA9B"/>
	</linearGradient>
	<path style="fill:url(#SVGID_00000174596907326178596830000005065318838381731731_);" d="M325.803,269.78
		c-2.838-5.471-3.863-6.06-5.346-9.026c-0.312,2.029-1.763,4.024-1.763,6.092c0,4.921,5.593,3.918,7.942,6.267
		C326.567,272.001,326.353,270.84,325.803,269.78z"/>
	
		<linearGradient id="SVGID_00000149344744925277228730000007390396973913061055_" gradientUnits="userSpaceOnUse" x1="318.8076" y1="266.8134" x2="318.3921" y2="256.5272">
		<stop  offset="0" style="stop-color:#003718"/>
		<stop  offset="0.4727" style="stop-color:#2C8656"/>
		<stop  offset="1" style="stop-color:#C0BA9B"/>
	</linearGradient>
	<path style="fill:url(#SVGID_00000149344744925277228730000007390396973913061055_);" d="M319.485,262.559
		c-0.085-1.406-0.254-2.811-0.254-4.216c0-0.608,0.032-1.216,0.116-1.824c-1.193,1.875-1.667,3.885-1.667,5.921
		c0,1.619,1.152,8.29,1.152,4.991c0-2.07,0.691-3.833,0.691-4.299C319.523,262.936,319.496,262.733,319.485,262.559z"/>
	
		<linearGradient id="SVGID_00000003796759183234172130000006953641629050897814_" gradientUnits="userSpaceOnUse" x1="315.8448" y1="265.8221" x2="318.8604" y2="265.8221">
		<stop  offset="0" style="stop-color:#003718"/>
		<stop  offset="0.4727" style="stop-color:#2C8656"/>
		<stop  offset="1" style="stop-color:#C0BA9B"/>
	</linearGradient>
	<path style="fill:url(#SVGID_00000003796759183234172130000006953641629050897814_);" d="M318.86,270.821
		c-0.035-1.416,0.009-1.524-1.875-9.998c-0.753,1.237-1.141,2.712-1.141,4.174C315.845,267.31,316.818,269.587,318.86,270.821z"/>
	
		<linearGradient id="SVGID_00000145052432753000805520000015551484547310008473_" gradientUnits="userSpaceOnUse" x1="318.6911" y1="269.1624" x2="314.9001" y2="260.0195">
		<stop  offset="0" style="stop-color:#003718"/>
		<stop  offset="0.4727" style="stop-color:#2C8656"/>
		<stop  offset="1" style="stop-color:#C0BA9B"/>
	</linearGradient>
	<path style="fill:url(#SVGID_00000145052432753000805520000015551484547310008473_);" d="M320.318,271.654
		c-1.072-6.433-3.57-6.666-4.582-12.358c-0.275,0.91-0.399,1.8-0.399,2.668c0,3.303,1.81,6.286,4.079,8.857
		C319.676,271.116,320.11,271.238,320.318,271.654z"/>
	
		<linearGradient id="SVGID_00000099621352748520055760000015899053545782114198_" gradientUnits="userSpaceOnUse" x1="327.8167" y1="264.6782" x2="331.0396" y2="264.6782">
		<stop  offset="0" style="stop-color:#003718"/>
		<stop  offset="0.4727" style="stop-color:#2C8656"/>
		<stop  offset="1" style="stop-color:#C0BA9B"/>
	</linearGradient>
	<path style="fill:url(#SVGID_00000099621352748520055760000015899053545782114198_);" d="M327.817,270.127
		c1.862-4.656,3.537-4.79,3.173-9.035c-0.399-4.647-0.578,0.225-2.478,5.633C328.109,267.869,328.025,269.016,327.817,270.127z"/>
	
		<linearGradient id="SVGID_00000161628321547035360650000011997412296926664631_" gradientUnits="userSpaceOnUse" x1="326.8825" y1="272.7836" x2="328.9432" y2="264.0356">
		<stop  offset="0" style="stop-color:#003718"/>
		<stop  offset="0.4727" style="stop-color:#2C8656"/>
		<stop  offset="1" style="stop-color:#C0BA9B"/>
	</linearGradient>
	<path style="fill:url(#SVGID_00000161628321547035360650000011997412296926664631_);" d="M326.983,273.459
		c1.153-2.47,2.775-3.38,2.775-7.533c0-10.047-3.976,2.911-3.976,5.537c0,0.991,0.135,1.985,0.437,2.968
		C326.567,274.223,326.497,273.598,326.983,273.459z"/>
	
		<linearGradient id="SVGID_00000145776219362757958760000002632341912711781550_" gradientUnits="userSpaceOnUse" x1="331.5492" y1="267.3919" x2="331.1353" y2="259.5421">
		<stop  offset="0" style="stop-color:#003718"/>
		<stop  offset="0.4727" style="stop-color:#2C8656"/>
		<stop  offset="1" style="stop-color:#C0BA9B"/>
	</linearGradient>
	<path style="fill:url(#SVGID_00000145776219362757958760000002632341912711781550_);" d="M329.344,273.32
		c2.223-3.762,4.352-7.617,4.352-11.911c0-5.038-0.416-2.09-3.033,2.747c-1.271,2.349-0.629,4.998-0.972,7.568
		c-0.067,0.504-0.356,0.952-0.356,1.447C329.335,273.22,329.338,273.27,329.344,273.32z"/>
	
		<linearGradient id="SVGID_00000142892124061473814410000009172133790656848026_" gradientUnits="userSpaceOnUse" x1="327.1264" y1="269.3373" x2="333.4498" y2="269.3373">
		<stop  offset="0" style="stop-color:#003718"/>
		<stop  offset="0.4727" style="stop-color:#2C8656"/>
		<stop  offset="1" style="stop-color:#C0BA9B"/>
	</linearGradient>
	<path style="fill:url(#SVGID_00000142892124061473814410000009172133790656848026_);" d="M327.539,276.375
		c3.303-2.61,5.911-6.324,5.911-10.42c0-1.643-0.76-4.508-0.76-3.412c0,3.026-5.564,9.632-5.564,13.005
		C327.126,275.858,327.249,276.133,327.539,276.375z"/>
	
		<linearGradient id="SVGID_00000161634159640182380370000001252437581915084203_" gradientUnits="userSpaceOnUse" x1="327.9349" y1="274.4962" x2="331.063" y2="265.9106">
		<stop  offset="0" style="stop-color:#003718"/>
		<stop  offset="0.4727" style="stop-color:#2C8656"/>
		<stop  offset="1" style="stop-color:#C0BA9B"/>
	</linearGradient>
	<path style="fill:url(#SVGID_00000161634159640182380370000001252437581915084203_);" d="M327.331,279.5
		c2.749-2.607,3.729-6.335,3.729-10.055c0-5.253-0.396-2.895-1.299-1.54c-1.718,2.578-4.325,4.652-4.325,7.72
		c0,1.445,0.617,2.884,0.617,4.395c0,0.218-0.013,0.437-0.042,0.66C326.428,280.263,326.903,279.905,327.331,279.5z"/>
	
		<linearGradient id="SVGID_00000073685740869162566110000017627368903025274775_" gradientUnits="userSpaceOnUse" x1="324.5286" y1="272.6722" x2="327.0573" y2="263.0332">
		<stop  offset="0" style="stop-color:#003718"/>
		<stop  offset="0.4727" style="stop-color:#2C8656"/>
		<stop  offset="1" style="stop-color:#C0BA9B"/>
	</linearGradient>
	<path style="fill:url(#SVGID_00000073685740869162566110000017627368903025274775_);" d="M325.261,283.423
		c1.391-1.998,1.946-4.456,1.946-6.957c0-6.367-2.667-9.065-3.334-11.164c-1.529,2.962-3.645,5.746-3.645,8.667
		c0,2.733,1.551,5.365,3.367,7.579C324.125,282.195,324.983,282.59,325.261,283.423z"/>
	
		<linearGradient id="SVGID_00000137828595223300512190000002631938042022586257_" gradientUnits="userSpaceOnUse" x1="318.8363" y1="272.4898" x2="318.7843" y2="264.5221">
		<stop  offset="0" style="stop-color:#003718"/>
		<stop  offset="0.4727" style="stop-color:#2C8656"/>
		<stop  offset="1" style="stop-color:#C0BA9B"/>
	</linearGradient>
	<path style="fill:url(#SVGID_00000137828595223300512190000002631938042022586257_);" d="M321.578,283.559
		c0.769-2.085,1.239-4.502,1.239-6.895c0-9.666-6.014-9.974-7.627-11.99c-0.234,0.865-0.341,1.738-0.341,2.609
		c0,7.891,6.802,10.72,6.802,15.178C321.651,282.831,321.624,283.2,321.578,283.559z"/>
	
		<linearGradient id="SVGID_00000003796315654973383090000005098434551989920918_" gradientUnits="userSpaceOnUse" x1="315.2408" y1="266.9062" x2="315.3555" y2="261.7667">
		<stop  offset="0" style="stop-color:#003718"/>
		<stop  offset="0.4727" style="stop-color:#2C8656"/>
		<stop  offset="1" style="stop-color:#C0BA9B"/>
	</linearGradient>
	<path style="fill:url(#SVGID_00000003796315654973383090000005098434551989920918_);" d="M317.68,278.389
		c-2.076-5.536-1.517-12.841-4.027-17.704c-0.181,2.226-1.114,4.344-1.114,6.59c0,4.257,4.945,10.514,5.002,10.628
		C317.611,278.042,317.68,278.25,317.68,278.389z"/>
	
		<linearGradient id="SVGID_00000061467978164489182470000014597839323963343503_" gradientUnits="userSpaceOnUse" x1="314.5417" y1="272.2953" x2="314.7698" y2="239.6608">
		<stop  offset="0" style="stop-color:#003718"/>
		<stop  offset="0.1815" style="stop-color:#2C8656"/>
		<stop  offset="0.4768" style="stop-color:#007149"/>
		<stop  offset="0.8741" style="stop-color:#16A988"/>
		<stop  offset="1" style="stop-color:#C0BA9B"/>
	</linearGradient>
	<path style="fill:url(#SVGID_00000061467978164489182470000014597839323963343503_);" d="M316.986,281.305
		c-0.221-1.217-0.268-2.505-0.268-3.816c0-0.969,0.026-1.95,0.026-2.925c0-6.926-1.799-7.568-4.34-10.617
		c-0.225,1.175-0.335,2.368-0.335,3.564c0,3.609,1.005,7.24,2.904,10.46C315.638,279.1,316.292,280.194,316.986,281.305z"/>
	
		<linearGradient id="SVGID_00000099660164277899477740000004365136382716922036_" gradientUnits="userSpaceOnUse" x1="314.1554" y1="277.3284" x2="313.5408" y2="268.8992">
		<stop  offset="0" style="stop-color:#003718"/>
		<stop  offset="0.4727" style="stop-color:#2C8656"/>
		<stop  offset="1" style="stop-color:#C0BA9B"/>
	</linearGradient>
	<path style="fill:url(#SVGID_00000099660164277899477740000004365136382716922036_);" d="M314.209,280.785
		c0.01-0.175,0.014-0.348,0.014-0.521c0-3.609-1.996-6.864-2.791-10.309c1.861,1.675,4.757,3.19,4.757,5.366
		c0,1.867-2.086,4.26-2.086,5.141C314.102,280.58,314.13,280.706,314.209,280.785z"/>
	
		<linearGradient id="SVGID_00000182487666074857160900000005066122511708146092_" gradientUnits="userSpaceOnUse" x1="319.2415" y1="279.4921" x2="317.9642" y2="264.2029">
		<stop  offset="0" style="stop-color:#003718"/>
		<stop  offset="0.4727" style="stop-color:#2C8656"/>
		<stop  offset="1" style="stop-color:#C0BA9B"/>
	</linearGradient>
	<path style="fill:url(#SVGID_00000182487666074857160900000005066122511708146092_);" d="M322.206,283.863
		c0.293-1.172,0.44-2.336,0.44-3.473c0-7.508-5.78-9.845-6.411-11.107c-0.534,1.373-0.832,2.845-0.832,4.289
		c0,2.499,0.89,4.917,2.984,6.611C319.805,281.329,321.165,282.405,322.206,283.863z"/>
	
		<linearGradient id="SVGID_00000158021742027762528250000007139673986001607810_" gradientUnits="userSpaceOnUse" x1="322.0157" y1="286.3569" x2="323.5801" y2="267.6078">
		<stop  offset="0" style="stop-color:#003718"/>
		<stop  offset="0.4727" style="stop-color:#2C8656"/>
		<stop  offset="1" style="stop-color:#C0BA9B"/>
	</linearGradient>
	<path style="fill:url(#SVGID_00000158021742027762528250000007139673986001607810_);" d="M324.61,285.381
		c1.057-1.328,1.478-3.246,1.478-5.176c0-4.755-1.746-6.198-3.214-8.085c-2.515,2.321-3.956,5.51-3.956,8.596
		c0,4,2.672,6.76,3.144,6.76C322.671,287.476,323.868,286.313,324.61,285.381z"/>
	
		<linearGradient id="SVGID_00000109713935776708052670000018014301838865927073_" gradientUnits="userSpaceOnUse" x1="328.3129" y1="282.2567" x2="328.028" y2="268.667">
		<stop  offset="0" style="stop-color:#003718"/>
		<stop  offset="0.4727" style="stop-color:#2C8656"/>
		<stop  offset="1" style="stop-color:#C0BA9B"/>
	</linearGradient>
	<path style="fill:url(#SVGID_00000109713935776708052670000018014301838865927073_);" d="M328.025,282.346
		c2.267-2.558,4.027-5.608,4.027-9.055c0-0.26-0.063-2.145-0.326-2.145l-5.645,3.98c-1.477,1.042-1.754,2.572-1.754,4.204
		c0,0.98,0.1,1.998,0.1,2.969c0,2.894,3.02,0.068,4.986-2.313L328.025,282.346z"/>
	
		<linearGradient id="SVGID_00000157270354402630500390000014306543513099724448_" gradientUnits="userSpaceOnUse" x1="330.4657" y1="279.1782" x2="335.8399" y2="268.0065">
		<stop  offset="0" style="stop-color:#003718"/>
		<stop  offset="0.4727" style="stop-color:#2C8656"/>
		<stop  offset="1" style="stop-color:#C0BA9B"/>
	</linearGradient>
	<path style="fill:url(#SVGID_00000157270354402630500390000014306543513099724448_);" d="M329.622,284.597
		c0-0.417,0.198-0.703,0.417-0.972c4.016-4.938,4.513-11.039,4.721-16.941c-2.306,4.218-5.598,8.658-5.598,13.555
		c0,1.149,0.181,2.323,0.599,3.525c0.02,0.058,0.028,0.116,0.028,0.175C329.789,284.156,329.676,284.379,329.622,284.597z"/>
	
		<linearGradient id="SVGID_00000134209145155942203340000011899228745534813611_" gradientUnits="userSpaceOnUse" x1="313.0409" y1="276.3018" x2="306.5456" y2="259.3059">
		<stop  offset="0" style="stop-color:#003718"/>
		<stop  offset="0.4727" style="stop-color:#2C8656"/>
		<stop  offset="0.5099" style="stop-color:#348859"/>
		<stop  offset="1" style="stop-color:#C0BA9B"/>
	</linearGradient>
	<path style="fill:url(#SVGID_00000134209145155942203340000011899228745534813611_);" d="M317.819,283.874
		c-1.25-3.61-2.608-6.619-4.999-9.651c-1.497-1.898-2.222-4.235-4.027-5.832c0.555,5.415,3.514,10.089,7.012,14.372
		C316.335,283.41,317.055,283.596,317.819,283.874z"/>
	
		<linearGradient id="SVGID_00000149361366305441958760000017641847854729386677_" gradientUnits="userSpaceOnUse" x1="313.784" y1="280.4301" x2="313.6692" y2="271.0338">
		<stop  offset="0.1815" style="stop-color:#2C8656"/>
		<stop  offset="0.4768" style="stop-color:#007149"/>
		<stop  offset="0.8741" style="stop-color:#16A988"/>
		<stop  offset="1" style="stop-color:#C0BA9B"/>
	</linearGradient>
	<path style="fill:url(#SVGID_00000149361366305441958760000017641847854729386677_);" d="M317.611,283.04
		c-2.414-5.231-4.021-4.929-7.221-10.414c-0.259,1.122-0.454,2.269-0.454,3.428c0,4.584,3.04,6.989,7.439,6.989
		C317.454,283.043,317.532,283.042,317.611,283.04z"/>
	
		<linearGradient id="SVGID_00000010299853676643905440000010965242176139110060_" gradientUnits="userSpaceOnUse" x1="313.3029" y1="283.8672" x2="312.61" y2="265.8777">
		<stop  offset="0" style="stop-color:#003718"/>
		<stop  offset="0.1815" style="stop-color:#2C8656"/>
		<stop  offset="0.4768" style="stop-color:#007149"/>
		<stop  offset="0.8741" style="stop-color:#16A988"/>
		<stop  offset="1" style="stop-color:#C0BA9B"/>
	</linearGradient>
	<path style="fill:url(#SVGID_00000010299853676643905440000010965242176139110060_);" d="M319.346,285.956
		c-1.527-3.957-5.755-4.663-9.026-6.943c-2.001-1.395-3.222-6.03-3.222-1.545c0,4.043,3.561,7.963,8.6,7.963
		c0.592,0,1.174-0.033,1.763-0.033c0.415,0,0.833,0.016,1.26,0.072C318.997,285.506,319.138,285.748,319.346,285.956z"/>
	
		<linearGradient id="SVGID_00000056394687924451330170000000116007312995038117_" gradientUnits="userSpaceOnUse" x1="318.6073" y1="288.7731" x2="319.3497" y2="264.9097">
		<stop  offset="0" style="stop-color:#003718"/>
		<stop  offset="0.1815" style="stop-color:#2C8656"/>
		<stop  offset="0.4768" style="stop-color:#007149"/>
		<stop  offset="0.8741" style="stop-color:#16A988"/>
	</linearGradient>
	<path style="fill:url(#SVGID_00000056394687924451330170000000116007312995038117_);" d="M321.046,288.518
		c-3.075-0.577-5.893-3.101-5.893-6.328c0-1.202,0.497-3.496,1.588-5.406c1.499,2.883,5.621,5.112,5.621,8.874
		C322.363,286.674,321.986,287.661,321.046,288.518z"/>
	
		<linearGradient id="SVGID_00000076588225857110911300000010553656686083541949_" gradientUnits="userSpaceOnUse" x1="330.9859" y1="281.3756" x2="332.3202" y2="271.295">
		<stop  offset="0" style="stop-color:#003718"/>
		<stop  offset="0.4727" style="stop-color:#2C8656"/>
		<stop  offset="1" style="stop-color:#C0BA9B"/>
	</linearGradient>
	<path style="fill:url(#SVGID_00000076588225857110911300000010553656686083541949_);" d="M329.83,283.804
		c1.21-2.314,3.968-4.238,3.968-6.993c0-0.46-3.783,2.384-3.899,2.481c-1.738,1.455-1.041,4.027-1.666,5.971
		C328.927,284.915,329.484,284.467,329.83,283.804z"/>
	
		<linearGradient id="SVGID_00000166638506565759677640000017266527614843573632_" gradientUnits="userSpaceOnUse" x1="325.5938" y1="289.5909" x2="329.7902" y2="275.8206">
		<stop  offset="0" style="stop-color:#003718"/>
		<stop  offset="0.4727" style="stop-color:#2C8656"/>
		<stop  offset="1" style="stop-color:#C0BA9B"/>
	</linearGradient>
	<path style="fill:url(#SVGID_00000166638506565759677640000017266527614843573632_);" d="M322.332,288.178
		c-0.01-0.142-0.016-0.282-0.016-0.421c0-5.749,7.561-7.444,8.278-10.132c0.771,1.297,1.206,2.665,1.206,4.032
		c0,3.118-1.777,5.479-5.788,6.243C324.767,288.138,323.581,288.109,322.332,288.178z"/>
	
		<linearGradient id="SVGID_00000009564979184589897080000008284054792178655360_" gradientUnits="userSpaceOnUse" x1="334.7595" y1="277.7986" x2="334.7595" y2="268.25">
		<stop  offset="0" style="stop-color:#003718"/>
		<stop  offset="0.4727" style="stop-color:#2C8656"/>
		<stop  offset="1" style="stop-color:#C0BA9B"/>
	</linearGradient>
	<path style="fill:url(#SVGID_00000009564979184589897080000008284054792178655360_);" d="M331.844,284.499
		c2.951-6.492,4.025-2.56,5.832-13.4c-1.458,2.847-3.035,5.564-4.443,8.47C332.488,281.106,332.607,282.971,331.844,284.499z"/>
	
		<linearGradient id="SVGID_00000050625481045994539760000004327976553117302405_" gradientUnits="userSpaceOnUse" x1="334.1926" y1="277.2312" x2="334.0728" y2="268.6994">
		<stop  offset="0" style="stop-color:#003718"/>
		<stop  offset="0.4727" style="stop-color:#2C8656"/>
		<stop  offset="1" style="stop-color:#C0BA9B"/>
	</linearGradient>
	<path style="fill:url(#SVGID_00000050625481045994539760000004327976553117302405_);" d="M333.649,282.763
		c1.389-3.91,2.977-8.037,2.977-12.265c0-3.755-0.304,1.222-4.088,7.474c-0.621,1.026-0.822,2.086-0.822,3.155
		c0,1.405,0.347,2.825,0.544,4.205C332.746,284.499,333.316,283.699,333.649,282.763z"/>
	
		<linearGradient id="SVGID_00000150071613634631769190000010198638551763232687_" gradientUnits="userSpaceOnUse" x1="333.1692" y1="287.2904" x2="333.2194" y2="269.3622">
		<stop  offset="0" style="stop-color:#003718"/>
		<stop  offset="0.1815" style="stop-color:#2C8656"/>
		<stop  offset="0.4768" style="stop-color:#007149"/>
		<stop  offset="0.8741" style="stop-color:#16A988"/>
		<stop  offset="1" style="stop-color:#C0BA9B"/>
	</linearGradient>
	<path style="fill:url(#SVGID_00000150071613634631769190000010198638551763232687_);" d="M327.539,287.067
		c0.191,0,8.217-4.163,8.331-4.235c2.081-1.322,2.499-3.819,2.985-6.04c-3.219,2.897-11.343,7.823-11.343,10.155
		C327.513,286.989,327.52,287.03,327.539,287.067z"/>
	
		<linearGradient id="SVGID_00000000931635249802673500000015826769946612717243_" gradientUnits="userSpaceOnUse" x1="334.1512" y1="291.8631" x2="335.9087" y2="268.3716">
		<stop  offset="0" style="stop-color:#003718"/>
		<stop  offset="0.1815" style="stop-color:#2C8656"/>
		<stop  offset="0.4768" style="stop-color:#007149"/>
		<stop  offset="0.8741" style="stop-color:#16A988"/>
		<stop  offset="1" style="stop-color:#C0BA9B"/>
	</linearGradient>
	<path style="fill:url(#SVGID_00000000931635249802673500000015826769946612717243_);" d="M328.574,288.155
		c5.276-0.659,12.291-2.687,12.291-8.005c0-0.062-0.053-0.081-0.113-0.081c-0.364,0-1.262,0.692-1.832,0.935
		c-3.204,1.365-7,1.743-8.956,4.929C329.489,286.705,329.13,287.461,328.574,288.155z"/>
	
		<linearGradient id="SVGID_00000033362082383235853770000002819771549742695835_" gradientUnits="userSpaceOnUse" x1="330.1852" y1="290.4376" x2="331.4904" y2="272.927">
		<stop  offset="0" style="stop-color:#003718"/>
		<stop  offset="0.1815" style="stop-color:#2C8656"/>
		<stop  offset="0.4768" style="stop-color:#007149"/>
		<stop  offset="0.8741" style="stop-color:#16A988"/>
		<stop  offset="1" style="stop-color:#C0BA9B"/>
	</linearGradient>
	<path style="fill:url(#SVGID_00000033362082383235853770000002819771549742695835_);" d="M324.345,289.15
		c0.185,0.01,0.371,0.016,0.558,0.016c1.316,0,11.873-2.231,11.873-7.672c0-0.763-1.594,1.435-2.572,1.963
		C330.869,285.257,325.734,285.262,324.345,289.15z"/>
	
		<linearGradient id="SVGID_00000165202964079237092270000015047105954638597761_" gradientUnits="userSpaceOnUse" x1="323.1244" y1="291.9477" x2="323.6642" y2="279.1625">
		<stop  offset="0" style="stop-color:#293700"/>
		<stop  offset="0.1815" style="stop-color:#79862C"/>
		<stop  offset="0.4768" style="stop-color:#287100"/>
		<stop  offset="0.8741" style="stop-color:#48A92E"/>
		<stop  offset="1" style="stop-color:#CA9C71"/>
	</linearGradient>
	<path style="fill:url(#SVGID_00000165202964079237092270000015047105954638597761_);" d="M327.261,286.234
		c-0.253,2.022-1.833,3.094-3.583,3.094c-2.537,0-4.215-2.17-4.215-2.936c0-0.043,0.007-0.074,0.022-0.089
		c1.25-0.139,2.916,0.278,3.541-1.111c1.128,0.752,2.483,1.052,3.809,1.052C326.977,286.244,327.12,286.241,327.261,286.234z"/>
	
		<linearGradient id="SVGID_00000047771561508055899400000014102652554396211104_" gradientUnits="userSpaceOnUse" x1="316.4449" y1="290.9887" x2="316.7705" y2="278.4958">
		<stop  offset="0" style="stop-color:#003718"/>
		<stop  offset="0.1815" style="stop-color:#2C8656"/>
		<stop  offset="0.4768" style="stop-color:#007149"/>
		<stop  offset="0.8741" style="stop-color:#16A988"/>
		<stop  offset="1" style="stop-color:#C0BA9B"/>
	</linearGradient>
	<path style="fill:url(#SVGID_00000047771561508055899400000014102652554396211104_);" d="M322.863,288.231
		c-1.04,0.503-2.12,0.725-3.199,0.725c-2.907,0-8.975-2.09-9.298-8.224c6.768,5.264,7.839,3.678,11.109,6.873
		C321.862,287.985,322.377,288.092,322.863,288.231z"/>
	
		<linearGradient id="SVGID_00000059291757787315211040000008019846831792219798_" gradientUnits="userSpaceOnUse" x1="312.1421" y1="289.4217" x2="312.0558" y2="276.6471">
		<stop  offset="0" style="stop-color:#003718"/>
		<stop  offset="0.1815" style="stop-color:#2C8656"/>
		<stop  offset="0.4768" style="stop-color:#007149"/>
		<stop  offset="0.8741" style="stop-color:#16A988"/>
		<stop  offset="1" style="stop-color:#C0BA9B"/>
	</linearGradient>
	<path style="fill:url(#SVGID_00000059291757787315211040000008019846831792219798_);" d="M318.499,287.732
		c-0.411,0.044-0.815,0.066-1.212,0.066c-4.577,0-8.305-2.826-11.563-5.828c0.408,0,0.811,0.278,1.224,0.278
		c0,0,0.188-0.005,0.366-0.005C311.688,282.242,315.589,284.618,318.499,287.732z"/>
	<path style="fill:#FFA87F;" d="M310.831,285.505c-0.818,0-1.482,0.664-1.482,1.482v6.099c0,1.415,0.242,2.82,0.717,4.154
		l2.72,7.643c0.354,0.995,1.295,1.659,2.351,1.659h16.335c1.056,0,1.997-0.664,2.351-1.659l2.72-7.643
		c0.474-1.333,0.717-2.738,0.717-4.154v-6.099c0-0.818-0.664-1.482-1.482-1.482H310.831z"/>
	<path style="opacity:0.13;fill:#FFFFFF;" d="M312.763,285.505c-0.676,0-1.225,0.664-1.225,1.482v6.099
		c0,1.415,0.2,2.82,0.592,4.154l2.247,7.643c0.292,0.995,1.07,1.659,1.943,1.659h13.499c0.872,0,1.65-0.664,1.943-1.659l2.247-7.643
		c0.392-1.333,0.592-2.738,0.592-4.154v-6.099c0-0.818-0.548-1.482-1.225-1.482H312.763z"/>
	<path style="opacity:0.13;fill:#FFFFFF;" d="M315.587,285.505c-0.416,0-0.754,0.664-0.754,1.482v6.099
		c0,1.415,0.123,2.82,0.365,4.154l1.383,7.643c0.18,0.995,0.659,1.659,1.196,1.659h8.309c0.537,0,1.016-0.664,1.196-1.659
		l1.383-7.643c0.241-1.333,0.365-2.738,0.365-4.154v-6.099c0-0.818-0.337-1.482-0.754-1.482H315.587z"/>
</g>
<g>
	<g id="XMLID_14_">
		<path style="fill:#B84C55;" d="M200.819,133.096c0-0.357-0.29-0.647-0.647-0.647h-2.087v0.434v0.001h1.959
			c0.188,0,0.34,0.152,0.34,0.34v2.67c0,0.188-0.152,0.34-0.34,0.34l-1.958,0v0.436h2.151c0.32,0,0.582-0.262,0.582-0.582
			L200.819,133.096z"/>
		<path style="fill:#EC616B;" d="M198.085,132.884v0.001H173.07c-0.109,0-0.209-0.074-0.227-0.182
			c-0.023-0.136,0.082-0.254,0.215-0.254h25.027V132.884z"/>
	</g>
	<g>
		<path style="fill:#EC616B;" d="M198.085,136.67h-25.047c-0.12,0-0.218-0.098-0.218-0.218s0.098-0.218,0.218-0.218h25.047V136.67z"
			/>
	</g>
	<g>
		<path style="fill:#755365;" d="M203.089,143.788h-24.808c-0.109,0-0.209-0.074-0.227-0.181c-0.022-0.136,0.082-0.254,0.215-0.254
			h24.82c0.115,0,0.208,0.093,0.208,0.208v0.02C203.297,143.695,203.204,143.788,203.089,143.788z"/>
	</g>
	<g>
		<path style="fill:#755365;" d="M203.089,146.992h-24.827c-0.109,0-0.209-0.074-0.227-0.181c-0.022-0.137,0.083-0.254,0.215-0.254
			h24.839c0.115,0,0.208,0.093,0.208,0.208v0.02C203.297,146.899,203.204,146.992,203.089,146.992z"/>
	</g>
	<rect x="173.903" y="132.884" style="fill:#F9E9C6;" width="24.182" height="3.35"/>
	<path style="fill:#F2DBAB;" d="M198.085,136.235l1.958,0c0.188,0,0.34-0.152,0.34-0.34v-2.671c0-0.188-0.152-0.34-0.34-0.34
		l-1.958-0.001V136.235z"/>
	<path style="fill:#A1475E;" d="M210.848,141.171H183.04c-0.199,0-0.361-0.162-0.361-0.361v-3.779c0-0.199,0.162-0.361,0.361-0.361
		h27.808c0.2,0,0.361,0.162,0.361,0.361v3.779C211.209,141.01,211.047,141.171,210.848,141.171z"/>
	<path style="fill:#EC616B;" d="M204.092,150.091H177.69c-0.161,0-0.291-0.131-0.291-0.291v-2.516c0-0.161,0.13-0.291,0.291-0.291
		h26.402c0.161,0,0.291,0.13,0.291,0.291v2.516C204.383,149.96,204.253,150.091,204.092,150.091z"/>
	<g>
		<path style="fill:#A0475C;" d="M207.465,143.353h-26.744c-0.108,0-0.209-0.074-0.226-0.181c-0.022-0.136,0.082-0.254,0.215-0.254
			h26.698c0.151,0,0.274-0.123,0.274-0.274v-0.762c0-0.151-0.123-0.274-0.274-0.274h-26.661c-0.108,0-0.209-0.074-0.226-0.181
			c-0.022-0.136,0.083-0.254,0.215-0.254h26.73c0.36,0,0.652,0.292,0.652,0.652v0.878
			C208.117,143.061,207.825,143.353,207.465,143.353z"/>
	</g>
	<path style="fill:#F2DBAB;" d="M181.351,141.607h26.057c0.151,0,0.273,0.122,0.273,0.273v0.765c0,0.151-0.122,0.273-0.273,0.273
		h-26.057V141.607z"/>
	<path style="fill:#CA918A;" d="M196.427,140.373h-7.987c-0.12,0-0.217-0.097-0.217-0.217v-2.646c0-0.12,0.097-0.217,0.217-0.217
		h7.987c0.12,0,0.217,0.097,0.217,0.217v2.646C196.644,140.275,196.547,140.373,196.427,140.373z"/>
	<path style="fill:#CA918A;" d="M199.508,140.373h-0.524c-0.12,0-0.217-0.097-0.217-0.217v-2.646c0-0.12,0.097-0.217,0.217-0.217
		h0.524c0.12,0,0.217,0.097,0.217,0.217v2.646C199.725,140.275,199.628,140.373,199.508,140.373z"/>
	<path style="fill:#CA918A;" d="M202.82,140.373h-0.524c-0.12,0-0.217-0.097-0.217-0.217v-2.646c0-0.12,0.097-0.217,0.217-0.217
		h0.524c0.12,0,0.217,0.097,0.217,0.217v2.646C203.037,140.275,202.94,140.373,202.82,140.373z"/>
	<rect x="179.112" y="143.788" style="fill:#EBC4B5;" width="23.721" height="2.769"/>
</g>
<g>
	<path style="fill:#755365;" d="M208.554,202.243h-1.016c-0.163,0-0.296-0.132-0.296-0.296v-22.681c0-0.163,0.132-0.296,0.296-0.296
		h1.016c0.163,0,0.296,0.133,0.296,0.296v22.681C208.85,202.11,208.718,202.243,208.554,202.243z"/>
	<path style="fill:#6BB7CB;" d="M210.154,202.22l0.66-0.03c0.147-0.007,0.261-0.132,0.255-0.279l-1.123-24.942
		c-0.007-0.147-0.131-0.261-0.279-0.255l-0.66,0.03c-0.147,0.007-0.261,0.131-0.255,0.279l1.123,24.942
		C209.882,202.113,210.007,202.227,210.154,202.22z"/>
	<g id="XMLID_13_">
		<path style="fill:#FFAA80;" d="M215.298,201.633c0.026,0.201-0.116,0.383-0.316,0.408l-1.556,0.198
			c-0.201,0.026-0.382-0.116-0.409-0.316l-1.451-11.399l2.281-0.29L215.298,201.633z"/>
		<path style="fill:#FFAA80;" d="M212.269,177.816l0.732,5.758l-2.281,0.29l-0.732-5.758c-0.026-0.2,0.116-0.383,0.316-0.408
			l1.557-0.198C212.061,177.474,212.244,177.616,212.269,177.816z"/>
		
			<rect x="211.134" y="183.692" transform="matrix(0.992 -0.1261 0.1261 0.992 -21.8977 28.2701)" style="fill:#E46570;" width="2.3" height="6.713"/>
	</g>
	<g id="XMLID_12_">
		<path style="fill:#A1475E;" d="M200.681,178.253c0.315,0.029,0.548,0.306,0.519,0.623l-0.437,4.883
			c-0.442-0.387-0.727-0.94-0.727-1.51c0-0.443,0.443-1.782,0.443-3.337c0-0.228-0.01-0.454-0.032-0.68L200.681,178.253z"/>
		<path style="fill:#755365;" d="M200.764,183.759l-0.079,0.877c-0.824-1.051-1.997-2.197-1.997-3.388
			c0-0.872,0.863-1.68,0.941-3.089l0.818,0.074c0.022,0.225,0.032,0.452,0.032,0.68c0,1.555-0.443,2.894-0.443,3.337
			C200.036,182.819,200.322,183.372,200.764,183.759z"/>
		<path style="fill:#A1475E;" d="M200.685,184.636l-0.078,0.868c-1.229-1.027-3.176-3.163-2.804-5.411
			c0.118-0.714,0.298-1.539,0.375-2.063l1.452,0.129c-0.078,1.41-0.941,2.218-0.941,3.089
			C198.688,182.439,199.861,183.585,200.685,184.636z"/>
		<path style="fill:#874C61;" d="M200.607,185.504l-0.245,2.737c-0.503,0.427-1.182,0.656-1.85,0.656
			c-2.546,0-2.444-2.585-3.697-3.945l0.59-6.596c0.029-0.316,0.308-0.548,0.622-0.52l2.15,0.193
			c-0.077,0.524-0.257,1.35-0.375,2.063C197.43,182.341,199.378,184.476,200.607,185.504z"/>
		<path style="fill:#A1475E;" d="M200.361,188.241l-0.066,0.742c-0.872,0.702-2.02,0.775-2.377,0.775
			c-2.266,0-1.916-2.358-3.275-2.904l0.171-1.901c1.253,1.36,1.15,3.945,3.697,3.945
			C199.18,188.897,199.858,188.668,200.361,188.241z"/>
		<path style="fill:#755365;" d="M200.296,188.983l-0.276,3.079c-0.745,0.695-1.812,1.388-3.658,1.388
			c-0.054,0-1.254-0.743-1.853-0.743c-0.139,0-0.271,0.027-0.397,0.09l0.533-5.943c1.358,0.545,1.009,2.904,3.275,2.904
			C198.276,189.757,199.424,189.685,200.296,188.983z"/>
		<path style="fill:#A1475E;" d="M200.019,192.062l-0.369,4.114c-1.289,0.517-2.529,0.773-2.731,0.773
			c-0.103,0-0.367-0.057-0.643-0.057c-2.214,0-1.751,2.378-2.8,2.978l0.634-7.074c0.126-0.062,0.258-0.09,0.397-0.09
			c0.599,0,1.799,0.743,1.853,0.743C198.207,193.45,199.274,192.757,200.019,192.062z"/>
		<path style="fill:#755365;" d="M199.65,196.176l-0.498,5.567c-0.029,0.315-0.306,0.548-0.621,0.519l-4.656-0.417
			c-0.315-0.027-0.548-0.306-0.519-0.621l0.121-1.354c1.05-0.6,0.587-2.978,2.8-2.978c0.275,0,0.539,0.057,0.643,0.057
			C197.121,196.949,198.362,196.693,199.65,196.176z"/>
	</g>
	<g id="XMLID_11_">
		<rect x="204.588" y="194.48" style="fill:#F2DBAB;" width="2.655" height="0.516"/>
		<rect x="204.588" y="190.865" style="fill:#EF8086;" width="2.655" height="3.615"/>
		<rect x="204.588" y="189.057" style="fill:#A1475E;" width="2.655" height="1.808"/>
		<rect x="204.588" y="186.181" style="fill:#755365;" width="2.655" height="2.876"/>
		<rect x="204.588" y="185.702" style="fill:#F2DBAB;" width="2.655" height="0.479"/>
		<path style="fill:#EC616B;" d="M207.242,176.54v9.162h-2.655v-9.162c0-0.223,0.18-0.404,0.403-0.404h1.849
			C207.062,176.136,207.242,176.317,207.242,176.54z"/>
		<path style="fill:#EC616B;" d="M207.242,194.995v6.845c0,0.223-0.181,0.402-0.402,0.402h-1.849c-0.223,0-0.403-0.179-0.403-0.402
			v-6.845H207.242z"/>
	</g>
	<g id="XMLID_10_">
		<path style="fill:#B3D5C8;" d="M204.619,199.679v2.1c0,0.248-0.199,0.447-0.447,0.447h-2.509c-0.247,0-0.447-0.199-0.447-0.447
			v-2.1H204.619z"/>
		<path style="fill:#B3D5C8;" d="M204.619,177.564v2.162h-3.403v-2.162c0-0.248,0.2-0.447,0.447-0.447h2.509
			C204.42,177.117,204.619,177.316,204.619,177.564z"/>
		<rect x="201.216" y="179.725" style="fill:#E0E7DB;" width="3.403" height="19.954"/>
	</g>
	<g>
		<path style="fill-rule:evenodd;clip-rule:evenodd;fill:#B4D6C9;" d="M202.357,187.823c-0.246-3.592,0.119-7.207,0.603-7.207
			c0.484,0,0.849,3.614,0.603,7.207c-0.254,3.701-0.455,5.057-0.603,8.885C202.813,192.88,202.61,191.524,202.357,187.823z"/>
	</g>
</g>
<g>
	<path style="fill:#FFA87F;" d="M198.646,160.932v-2.626c0-0.15,0.45-0.271,1.005-0.271h10.479c0.555,0,1.005,0.122,1.005,0.271
		v2.626H198.646z"/>
	<g>
		<path style="fill:#F58560;" d="M210.885,160.932h-11.99v9.336c0,0.533,0.432,0.965,0.965,0.965h10.061
			c0.533,0,0.965-0.432,0.965-0.965V160.932z"/>
		<path style="opacity:0.13;fill:#FFFFFF;" d="M209.624,158.035h-9.523c-0.505,0-0.913,0.122-0.913,0.271v2.626h0.226v9.381
			c0,0.508,0.412,0.92,0.92,0.92h9.058c0.508,0,0.92-0.412,0.92-0.92v-9.381h0.226v-2.626
			C210.538,158.157,210.129,158.035,209.624,158.035z"/>
	</g>
</g>
<g>
	<path style="fill:#B3D5C8;" d="M185.08,132.837c2.359,0,4.499-1.383,5.468-3.535l0,0c1.491-3.312,1.368-7.127-0.333-10.336
		l-0.936-1.766h-7.095h-6.886l-0.936,1.766c-1.701,3.209-1.824,7.024-0.333,10.336l0,0c0.969,2.151,3.109,3.535,5.468,3.535H185.08z
		"/>
	<path style="opacity:0.19;fill:#FFFFFF;" d="M183.933,132.837c1.526,0,2.911-1.383,3.538-3.535l0,0
		c0.965-3.312,0.885-7.127-0.216-10.336l-0.606-1.766h-4.59h-4.455l-0.606,1.766c-1.101,3.209-1.18,7.024-0.216,10.336l0,0
		c0.627,2.151,2.011,3.535,3.537,3.535H183.933z"/>
	<path style="opacity:0.19;fill:#FFFFFF;" d="M182.344,132.837c0.688,0,1.311-1.383,1.594-3.535l0,0
		c0.435-3.312,0.399-7.127-0.097-10.336l-0.273-1.766H181.5h-2.007l-0.273,1.766c-0.496,3.209-0.532,7.024-0.097,10.336l0,0
		c0.282,2.151,0.906,3.535,1.593,3.535H182.344z"/>
	<path style="fill:#006941;" d="M181.824,117.202c-0.004-0.183-0.02-0.53-0.02-0.713c0-5.226,2.12-7.84,2.12-11.779
		c0-0.565-0.05-1.137-0.165-1.719c0.519,1.013,0.721,2.085,0.721,3.174c0,2.194-1.213,5.852-1.684,11.038H181.824z"/>
	<path style="fill:#059B67;" d="M183.373,117.202c-0.007-0.353-0.025-0.772-0.025-1.126c0-2.827,0.205-5.664,0.205-8.503
		c0-4.365-0.324-3.453-1.265-5.963c0.61,1.441,0.812,2.896,0.812,4.364c0,2.865-0.765,5.72-0.765,8.416
		c0,0.914,0.086,1.911,0.238,2.811H183.373z"/>
	<path style="fill:#00834D;" d="M183.456,117.202c0.938-4.869,2.725-9.845,5.563-13.787c-3.068,4.012-5.4,8.837-6.255,13.787
		H183.456z"/>
	<path style="fill:#008354;" d="M182.896,117.202c0.192-1.757,0.305-3.266,0.305-3.791c0-4.483-1.878-9.766-6.294-11.157
		c3.052,1.035,4.95,5.917,4.95,8.8c0,0.023-0.313,2.739-0.546,6.147H182.896z"/>
	<path style="fill:#00794E;" d="M181.241,117.202c0.082-0.824,0.114-1.693,0.114-2.529c0-5.47-1.374-9.008-6.833-9.008
		c-0.262,0-0.801,0.083-0.477,0.083c4.566,0,6.519,3.776,6.519,8.279c0,0.947-0.143,2.041-0.351,3.174H181.241z"/>
	<path style="fill:#84C5A6;" d="M182.94,117.202c0.03-0.41,0.034-0.798,0.034-0.874c0-3.271-1.723-4.729-4.031-4.729
		c-1.756,0-2.151,0.305-3.176,1.423c0.757-0.504,1.784-0.822,2.78-0.822c2.918,0,3.173,1.924,3.264,5.002H182.94z"/>
	<path style="fill:#007953;" d="M180.637,117.202c-0.407-3.419-3.118-6.494-6.842-6.494c-2.737,0-4.632,0.935-6.5,2.492
		c1.786-0.848,4.021-1.558,6.105-1.558c4.579,0,5.637,3.036,6.089,5.561H180.637z"/>
	<path style="fill:#042428;" d="M179.222,117.202c-0.343-2.176-1.864-3.406-3.39-3.406c-1.499,0-2.781,1.041-3.34,2.439
		c0.287-1.121,1.274-1.538,2.311-1.538c1.99,0,2.695,1.103,3.279,2.505H179.222z"/>
	<path style="fill:#005D36;" d="M178.977,117.202c-0.806-1.685-2.296-2.733-4.5-2.733c-3.895,0-6.262,3.405-6.708,5.037
		c0.935-2.194,3.539-3.924,6.01-3.924c1.703,0,2.684,0.736,3.387,1.62H178.977z"/>
	<path style="fill:#306C59;" d="M182.698,117.202c-0.413-1.286-1.191-2.44-2.669-2.44c-1.99,0-2.999,1.082-3.574,2.426
		c-0.578,1.351-0.791,2.948-0.588,3.974c0.139-1.321,0.464-3.004,1.659-3.978c0.751-0.613,2.112-1.056,2.539-0.997
		c0.442,0.061,0.661,0.374,0.708,0.51s0.018,0.509,0.018,0.509L182.698,117.202z"/>
	<path style="fill:#2F6A5C;" d="M184.818,117.202c0.005-0.019,0.01,0.019,0.015,0c1.011-3.838,3.431-4.334,7.546-4.334
		c1.614,0,4.928,0.341,5.223,0.93c-1.67-1.236-3.82-1.859-5.989-1.859c-4.258,0-7.369,2.326-8.556,5.264H184.818z"/>
	<path style="fill:#001809;" d="M184.717,117.202c0.677-1.187,1.93-1.872,3.323-1.872c1.754,0,4.762,1.647,5.068,7.445
		c-0.649-2.466-2.186-6.126-5.071-6.126c-0.717,0-1.284,0.248-1.753,0.553H184.717z"/>
	<g>
		<path style="fill:#2C2C2C;" d="M186.241,116.42c-0.321,0-0.855,0.185-1.156,0.782h0.87c0.212-0.177,0.468-0.234,0.803-0.234
			c1.779,0,1.959,4.82,1.959,2.221C188.716,116.62,186.395,116.42,186.241,116.42z"/>
	</g>
</g>
</svg>
